<?xml version="1.0" encoding="UTF-8" standalone="no" ?>
<!DOCTYPE svg PUBLIC "-//W3C//DTD SVG 1.1//EN" "http://www.w3.org/Graphics/SVG/1.1/DTD/svg11.dtd">
<svg xmlns="http://www.w3.org/2000/svg" xmlns:xlink="http://www.w3.org/1999/xlink" version="1.1" width="1080" height="1080" viewBox="0 0 1080 1080" xml:space="preserve">
<desc>Created with Fabric.js 5.2.4</desc>
<defs>
</defs>
<g transform="matrix(1 0 0 1 540 540)" id="06838fb2-9d23-469c-89d1-cad4990c339d"  >
</g>
<g transform="matrix(1 0 0 1 540 540)" id="6eb9dfde-0ca3-4773-a16c-b97c7b3ee665"  >
<rect style="stroke: none; stroke-width: 1; stroke-dasharray: none; stroke-linecap: butt; stroke-dashoffset: 0; stroke-linejoin: miter; stroke-miterlimit: 4; fill: rgb(255,255,255); fill-rule: nonzero; opacity: 1; visibility: hidden;" vector-effect="non-scaling-stroke"  x="-540" y="-540" rx="0" ry="0" width="1080" height="1080" />
</g>
<g transform="matrix(1 0 0 1 540 540)"  >
<g style="" vector-effect="non-scaling-stroke"   >
		<g transform="matrix(1 0 0 1 0 -13.32)"  >
<rect style="stroke: none; stroke-width: 1; stroke-dasharray: none; stroke-linecap: butt; stroke-dashoffset: 0; stroke-linejoin: miter; stroke-miterlimit: 4; fill: rgb(255,255,255); fill-rule: nonzero; opacity: 1; visibility: hidden;" vector-effect="non-scaling-stroke"  x="-540" y="-540" rx="0" ry="0" width="1080" height="1080" />
</g>
		<g transform="matrix(1 0 0 1 -490 -476.69)"  >
<rect style="stroke: none; stroke-width: 1; stroke-dasharray: none; stroke-linecap: butt; stroke-dashoffset: 0; stroke-linejoin: miter; stroke-miterlimit: 4; fill: rgb(255,255,255); fill-rule: nonzero; opacity: 1;" vector-effect="non-scaling-stroke"  x="-50" y="-50" rx="0" ry="0" width="100" height="100" />
</g>
		<g transform="matrix(1 0 0 1 0 13.31)"  >
<rect style="stroke: none; stroke-width: 1; stroke-dasharray: none; stroke-linecap: butt; stroke-dashoffset: 0; stroke-linejoin: miter; stroke-miterlimit: 4; fill: rgb(255,255,255); fill-rule: nonzero; opacity: 1; visibility: hidden;" vector-effect="non-scaling-stroke"  x="-540" y="-540" rx="0" ry="0" width="1080" height="1080" />
</g>
		<g transform="matrix(10.98 0 0 10.98 -147.85 58.39)"  >
<path style="stroke: none; stroke-width: 1; stroke-dasharray: none; stroke-linecap: butt; stroke-dashoffset: 0; stroke-linejoin: miter; stroke-miterlimit: 4; fill: rgb(255,255,255); fill-rule: nonzero; opacity: 1;" vector-effect="non-scaling-stroke"  transform=" translate(-28.39, -56.46)" d="M 28.387 50.596 C 25.153 50.596 22.521 53.227 22.521 56.461999999999996 C 22.521 59.696 25.152 62.327999999999996 28.387 62.327999999999996 C 31.622 62.327999999999996 34.253 59.696999999999996 34.253 56.461999999999996 C 34.252 53.227 31.621 50.596 28.387 50.596 z M 28.387 58.16 C 27.449 58.16 26.689 57.4 26.689 56.461999999999996 C 26.689 55.523999999999994 27.449 54.763999999999996 28.387 54.763999999999996 C 29.325 54.763999999999996 30.085 55.523999999999994 30.085 56.461999999999996 C 30.085 57.399 29.324 58.16 28.387 58.16 z" stroke-linecap="round" />
</g>
		<g transform="matrix(10.98 0 0 10.98 57.24 58.34)"  >
<path style="stroke: none; stroke-width: 1; stroke-dasharray: none; stroke-linecap: butt; stroke-dashoffset: 0; stroke-linejoin: miter; stroke-miterlimit: 4; fill: rgb(255,255,255); fill-rule: nonzero; opacity: 1;" vector-effect="non-scaling-stroke"  transform=" translate(-47.05, -56.46)" d="M 47.053 50.579 C 43.809 50.579 41.171 53.218 41.171 56.461 C 41.171 59.705 43.81 62.342999999999996 47.053 62.342999999999996 C 50.29599999999999 62.342999999999996 52.934999999999995 59.70399999999999 52.934999999999995 56.461 C 52.935 53.218 50.296 50.579 47.053 50.579 z M 47.053 58.057 C 46.172 58.057 45.456999999999994 57.343 45.456999999999994 56.461 C 45.456999999999994 55.58 46.17099999999999 54.864999999999995 47.053 54.864999999999995 C 47.934 54.864999999999995 48.649 55.57899999999999 48.649 56.461 C 48.649 57.343 47.934 58.057 47.053 58.057 z" stroke-linecap="round" />
</g>
		<g transform="matrix(10.98 0 0 10.98 138.95 -178.37)"  >
<path style="stroke: none; stroke-width: 1; stroke-dasharray: none; stroke-linecap: butt; stroke-dashoffset: 0; stroke-linejoin: miter; stroke-miterlimit: 4; fill: rgb(255,255,255); fill-rule: nonzero; opacity: 1;" vector-effect="non-scaling-stroke"  transform=" translate(-54.51, -34.92)" d="M 74.654 41.556 C 77.643 39.621 79 37.912 79 37.912 C 79 37.912 77.574 37.849 74.571 37.62 C 77.16199999999999 36.599999999999994 78.93599999999999 33.467999999999996 78.93599999999999 33.467999999999996 C 78.93599999999999 33.467999999999996 77.30399999999999 33.74999999999999 74.732 33.385999999999996 C 76.356 32.385 78.627 29.535999999999994 78.627 29.535999999999994 C 78.627 29.535999999999994 76.33699999999999 29.786999999999995 74.497 29.175999999999995 C 76.504 27.973999999999997 78.199 25.839999999999996 78.199 25.839999999999996 C 78.199 25.839999999999996 74.131 25.932999999999996 66.181 25.407999999999998 C 58.492 24.9 57.492999999999995 23.377 55.077999999999996 22.97 C 51.26 25.738999999999997 45.257 29.137 38.940999999999995 32.832 C 36.56999999999999 34.219 33.382999999999996 35.942 30.011999999999993 37.703 L 30.011999999999993 37.703 C 37.31099999999999 42.822 65.047 47.5 70.50099999999999 46.795 C 75.65899999999999 46.128 78.71799999999999 41.79 78.71799999999999 41.79 C 78.71799999999999 41.79 76.772 42.068 74.654 41.556 z" stroke-linecap="round" />
</g>
		<g transform="matrix(10.98 0 0 10.98 -51.02 -50.95)"  >
<path style="stroke: none; stroke-width: 1; stroke-dasharray: none; stroke-linecap: butt; stroke-dashoffset: 0; stroke-linejoin: miter; stroke-miterlimit: 4; fill: rgb(255,255,255); fill-rule: nonzero; opacity: 1;" vector-effect="non-scaling-stroke"  transform=" translate(-37.19, -46.51)" d="M 27.939 38.71 C 22.032 41.644 15.567 44.68 11.857 46.337 C 11.927 47.271 12.395999999999999 49.123000000000005 13.225999999999999 50.918000000000006 C 15.924 52.145 19.139 53.50000000000001 20.878999999999998 54.224000000000004 C 21.845 50.992000000000004 24.843999999999998 48.628 28.385999999999996 48.628 C 31.959999999999994 48.628 34.980999999999995 51.035 35.91799999999999 54.313 L 39.520999999999994 54.313 C 40.45799999999999 51.035000000000004 43.47899999999999 48.628 47.053 48.628 C 50.512 48.628 53.452 50.882 54.488 53.998 L 62.349 49.187999999999995 L 62.528 48.53099999999999 C 56.628 47.951 35.132 43.977 27.939 38.71 L 27.939 38.71 z" stroke-linecap="round" />
</g>
		<g transform="matrix(10.98 0 0 10.98 -41.31 241.67)"  >
<path style="stroke: none; stroke-width: 1; stroke-dasharray: none; stroke-linecap: butt; stroke-dashoffset: 0; stroke-linejoin: miter; stroke-miterlimit: 4; fill: rgb(255,255,255); fill-rule: nonzero; opacity: 1;" vector-effect="non-scaling-stroke"  transform=" translate(-38.08, -73.16)" d="M 63.128 51.432 L 54.885999999999996 56.475 C 54.879 60.789 51.367999999999995 64.296 47.05199999999999 64.296 C 42.78999999999999 64.296 39.31399999999999 60.87400000000001 39.221999999999994 56.63400000000001 L 36.214999999999996 56.63400000000001 C 36.123 60.87400000000001 32.647 64.296 28.384999999999998 64.296 C 24.113 64.296 20.63 60.858000000000004 20.555 56.60300000000001 C 19.103 56.00200000000001 15.733 54.595000000000006 12.768 53.25900000000001 C 12.142000000000001 54.275000000000006 12.350000000000001 56.138000000000005 13.491000000000001 57.81600000000001 C 15.135000000000002 60.23400000000001 16.779 66.424 16.973000000000003 69.519 C 17.166000000000004 72.614 19.971000000000004 73.775 21.712000000000003 71.453 C 21.712000000000003 71.453 25.774000000000004 84.897 26.645000000000003 87.991 C 27.515000000000004 91.086 27.515000000000004 94.471 37.477000000000004 94.858 C 47.43900000000001 95.245 47.342000000000006 91.666 48.986000000000004 88.86200000000001 C 50.63 86.057 54.30500000000001 74.161 55.36900000000001 70.96900000000001 C 57.013000000000005 72.13000000000001 59.044000000000004 70.679 59.23800000000001 68.45400000000001 C 59.431000000000004 66.23 61.172000000000004 60.13600000000001 63.107000000000006 55.784000000000006 C 64.148 53.444 63.734 52.139 63.128 51.432 z M 33.3 66.572 C 33.498 66.134 34.013 65.93900000000001 34.452 66.138 C 37.028 67.30300000000001 39.723 67.227 41.486 65.938 C 41.875 65.654 42.419 65.739 42.702 66.127 C 42.986 66.515 42.900999999999996 67.06 42.513 67.34299999999999 C 41.282 68.243 39.727999999999994 68.69699999999999 38.062 68.69699999999999 C 36.657 68.69699999999999 35.174 68.374 33.733999999999995 67.72299999999998 C 33.296 67.526 33.102 67.011 33.3 66.572 z M 40.573 84.123 C 40.392 84.123 36.12 84.113 33.689 83.278 C 33.235 83.122 32.993 82.62700000000001 33.149 82.17200000000001 C 33.305 81.71800000000002 33.800000000000004 81.47500000000001 34.255 81.632 C 36.410000000000004 82.373 40.531000000000006 82.38300000000001 40.573 82.38300000000001 C 41.054 82.38300000000001 41.443 82.77300000000001 41.443 83.25300000000001 C 41.444 83.733 41.054 84.123 40.573 84.123 z M 45.155 83.476 C 45.041000000000004 83.506 44.024 83.775 43.410000000000004 83.828 C 43.384 83.83 43.359 83.831 43.333000000000006 83.831 C 42.886 83.831 42.50600000000001 83.489 42.467000000000006 83.036 C 42.425000000000004 82.557 42.78000000000001 82.135 43.258 82.093 C 43.608000000000004 82.062 44.331 81.893 44.704 81.793 C 45.169000000000004 81.67 45.646 81.94500000000001 45.77 82.409 C 45.895 82.875 45.619 83.352 45.155 83.476 z M 51.431 71.739 C 51.262 71.903 51.043 71.985 50.824999999999996 71.985 C 50.598 71.985 50.370999999999995 71.897 50.199999999999996 71.721 C 50.166999999999994 71.687 49.772999999999996 71.27900000000001 49.251999999999995 70.664 C 45.145999999999994 73.255 41.18299999999999 74.165 37.65299999999999 74.165 C 33.41899999999999 74.165 29.807999999999993 72.864 27.30899999999999 71.60900000000001 C 27.24399999999999 71.71900000000001 27.17799999999999 71.82900000000001 27.11199999999999 71.93900000000001 C 26.94299999999999 72.221 26.766999999999992 72.51400000000001 26.583999999999993 72.843 C 26.424999999999994 73.129 26.127999999999993 73.291 25.821999999999992 73.291 C 25.67899999999999 73.291 25.533999999999992 73.256 25.39999999999999 73.181 C 24.97999999999999 72.948 24.827999999999992 72.41799999999999 25.06199999999999 71.997 C 25.25399999999999 71.651 25.43999999999999 71.341 25.61799999999999 71.044 C 26.109999999999992 70.222 26.499999999999993 69.573 26.82699999999999 68.49199999999999 C 26.96599999999999 68.032 27.45199999999999 67.77099999999999 27.91299999999999 67.91099999999999 C 28.37299999999999 68.04999999999998 28.63299999999999 68.53599999999999 28.49399999999999 68.99699999999999 C 28.373999999999988 69.39399999999999 28.24399999999999 69.74199999999999 28.10799999999999 70.06299999999999 C 32.31699999999999 72.16999999999999 39.91899999999999 74.40199999999999 48.16699999999999 69.28899999999999 C 47.908999999999985 68.93499999999999 47.65499999999999 68.56299999999999 47.42299999999999 68.18299999999999 C 47.17199999999999 67.773 47.301999999999985 67.237 47.71199999999999 66.98599999999999 C 48.121999999999986 66.73499999999999 48.65799999999999 66.865 48.90899999999999 67.27499999999999 C 49.907999999999994 68.90899999999999 51.43499999999999 70.49199999999999 51.45099999999999 70.508 C 51.784 70.853 51.776 71.404 51.431 71.739 z" stroke-linecap="round" />
</g>
		<g transform="matrix(10.98 0 0 10.98 -122.7 -234.73)"  >
<path style="stroke: none; stroke-width: 1; stroke-dasharray: none; stroke-linecap: butt; stroke-dashoffset: 0; stroke-linejoin: miter; stroke-miterlimit: 4; fill: rgb(255,255,255); fill-rule: nonzero; opacity: 1;" vector-effect="non-scaling-stroke"  transform=" translate(-30.69, -29.79)" d="M 46.676 15.155 C 41.162 18.821 14.277 32.573 8.28 34.788 C 6.635999999999999 35.657999999999994 7.215999999999999 38.559999999999995 8.087 40.977999999999994 C 8.956999999999999 43.395999999999994 9.683 44.02499999999999 10.844 44.605 C 10.844 44.672 29.402 36.174 35.961 32.513999999999996 C 42.352 28.948999999999995 54.184 21.770999999999994 54.007999999999996 21.740999999999996 C 54.684999999999995 20.676999999999996 52.57599999999999 18.345999999999997 51.126 16.314999999999998 C 49.676 14.283999999999999 46.676 15.155 46.676 15.155 z" stroke-linecap="round" />
</g>
		<g transform="matrix(10.98 0 0 10.98 -219.58 -425.91)"  >
<path style="stroke: none; stroke-width: 1; stroke-dasharray: none; stroke-linecap: butt; stroke-dashoffset: 0; stroke-linejoin: miter; stroke-miterlimit: 4; fill: rgb(255,255,255); fill-rule: nonzero; opacity: 1;" vector-effect="non-scaling-stroke"  transform=" translate(-21.85, -12.39)" d="M 21.503 12.51 C 21.734 12.432 21.967 12.347999999999999 22.201 12.261 C 21.962 12.336 21.729 12.419 21.503 12.51 z" stroke-linecap="round" />
</g>
		<g transform="matrix(10.98 0 0 10.98 -177.54 -317.01)"  >
<path style="stroke: none; stroke-width: 1; stroke-dasharray: none; stroke-linecap: butt; stroke-dashoffset: 0; stroke-linejoin: miter; stroke-miterlimit: 4; fill: rgb(255,255,255); fill-rule: nonzero; opacity: 1;" vector-effect="non-scaling-stroke"  transform=" translate(-25.69, -22.3)" d="M 38.936 12.541 C 36.505 12.261000000000001 33.607 12.541 27.810000000000002 11.887 C 25.445 11.620000000000001 23.688000000000002 11.790000000000001 22.200000000000003 12.261000000000001 C 21.967000000000002 12.348 21.734 12.432 21.502000000000002 12.510000000000002 C 16.590000000000003 14.160000000000002 13.212000000000003 16.953000000000003 11.432000000000002 21.323 C 11.148000000000001 22.916 11.044000000000002 25.037 10.233000000000002 25.91 C 9.018000000000002 27.219 6.633000000000003 30.029 7.849000000000002 32.834 C 13.646 30.693000000000005 38.533 18.050000000000004 43.862 14.506000000000004 C 43.863 14.506 41.367 12.821 38.936 12.541 z" stroke-linecap="round" />
</g>
		<g transform="matrix(10.98 0 0 10.98 -315.43 -420.35)"  >
<path style="stroke: none; stroke-width: 1; stroke-dasharray: none; stroke-linecap: butt; stroke-dashoffset: 0; stroke-linejoin: miter; stroke-miterlimit: 4; fill: rgb(255,255,255); fill-rule: nonzero; opacity: 1;" vector-effect="non-scaling-stroke"  transform=" translate(-13.11, -12.89)" d="M 9.64 20.775 L 9.677000000000001 20.683 C 11.638000000000002 15.869 15.336000000000002 12.607 20.981 10.709999999999999 C 21.054000000000002 10.684999999999999 21.131 10.658999999999999 21.211000000000002 10.630999999999998 C 20.093 7.356 16.991 5 13.338 5 C 8.742999999999999 5 5.0169999999999995 8.725 5.0169999999999995 13.321 C 5.017 16.588 6.9 19.413 9.64 20.775 z" stroke-linecap="round" />
</g>
</g>
</g>
</svg>